<svg xmlns="http://www.w3.org/2000/svg" version="1.1" xmlns:xlink="http://www.w3.org/1999/xlink" xmlns:svgjs="http://svgjs.dev/svgjs" width="1000" height="1000" viewBox="0 0 1000 1000"><rect width="1000" height="1000" fill="#000000"></rect><g transform="matrix(0.7,0,0,0.7,149.5757576472438,394.8695900651685)"><svg viewBox="0 0 396 119" data-background-color="#50a060" preserveAspectRatio="xMidYMid meet" height="300" width="1000" xmlns="http://www.w3.org/2000/svg" xmlns:xlink="http://www.w3.org/1999/xlink"><g id="tight-bounds" transform="matrix(1,0,0,1,0.2400000404408047,0.07389896307117283)"><svg viewBox="0 0 395.52 118.85220200916152" height="118.85220200916152" width="395.52"><g><svg viewBox="0 0 395.52 118.85220200916152" height="118.85220200916152" width="395.52"><g><svg viewBox="0 0 395.52 118.85220200916152" height="118.85220200916152" width="395.52"><g id="textblocktransform"><svg viewBox="0 0 395.52 118.85220200916152" height="118.85220200916152" width="395.52" id="textblock"><g><svg viewBox="0 0 395.52 90.47539460240125" height="90.47539460240125" width="395.52"><rect width="395.52" height="90.47539460240125" x="0" y="0" opacity="1" fill="#ffffff" data-fill-palette-color="tertiary"></rect><g transform="matrix(1,0,0,1,23.461705032,23.461705032000005)"><svg width="348.596589936" viewBox="2.799999952316284 -35.70000076293945 289.33001708984375 36.150001525878906" height="43.55198453840124" data-palette-color="#50a060"><path d="M22.75 0.15L22.75 0.15Q22.75-0.55 22.8-1.07 22.85-1.6 23-2L23-2Q24.35-2.1 25.1-2.48 25.85-2.85 26.15-3.78 26.45-4.7 26.45-6.35L26.45-6.35 26.45-27.45Q26.45-29.15 26.15-30.05 25.85-30.95 25.1-31.35 24.35-31.75 23-31.8L23-31.8Q22.85-32.2 22.8-32.75 22.75-33.3 22.75-33.95L22.75-33.95Q23.7-33.9 24.68-33.88 25.65-33.85 26.7-33.83 27.75-33.8 28.8-33.8L28.8-33.8Q29.9-33.8 30.9-33.83 31.9-33.85 32.88-33.88 33.85-33.9 34.85-33.95L34.85-33.95Q34.85-33.3 34.8-32.75 34.75-32.2 34.6-31.8L34.6-31.8Q33.3-31.75 32.52-31.35 31.75-30.95 31.45-30.05 31.15-29.15 31.15-27.45L31.15-27.45 31.15-6.35Q31.15-4.7 31.45-3.78 31.75-2.85 32.52-2.48 33.3-2.1 34.6-2L34.6-2Q34.75-1.6 34.8-1.07 34.85-0.55 34.85 0.15L34.85 0.15Q33.35 0.05 31.8 0.03 30.25 0 28.8 0L28.8 0Q27.35 0 25.7 0.03 24.05 0.05 22.75 0.15ZM2.8 0.15L2.8 0.15Q2.8-0.55 2.85-1.07 2.9-1.6 3.05-2L3.05-2Q4.4-2.1 5.15-2.48 5.9-2.85 6.2-3.78 6.5-4.7 6.5-6.35L6.5-6.35 6.5-27.45Q6.5-29.15 6.2-30.05 5.9-30.95 5.15-31.35 4.4-31.75 3.05-31.8L3.05-31.8Q2.9-32.2 2.85-32.75 2.8-33.3 2.8-33.95L2.8-33.95Q3.75-33.9 4.73-33.88 5.7-33.85 6.75-33.83 7.8-33.8 8.85-33.8L8.85-33.8Q9.95-33.8 10.95-33.83 11.95-33.85 12.93-33.88 13.9-33.9 14.9-33.95L14.9-33.95Q14.9-33.3 14.85-32.75 14.8-32.2 14.65-31.8L14.65-31.8Q13.35-31.75 12.58-31.35 11.8-30.95 11.5-30.05 11.2-29.15 11.2-27.45L11.2-27.45 11.2-6.35Q11.2-4.7 11.5-3.78 11.8-2.85 12.58-2.48 13.35-2.1 14.65-2L14.65-2Q14.8-1.6 14.85-1.07 14.9-0.55 14.9 0.15L14.9 0.15Q13.4 0.05 11.85 0.03 10.3 0 8.85 0L8.85 0Q7.4 0 5.75 0.03 4.1 0.05 2.8 0.15ZM10.95-15.95L10.95-15.95 10.95-18.4 26.7-18.4 26.7-16.25Q25.3-16.25 23.2-16.25 21.1-16.25 18.82-16.23 16.55-16.2 14.48-16.13 12.4-16.05 10.95-15.95ZM40.45-33.95L40.45-33.95Q41.2-33.9 42.32-33.88 43.45-33.85 44.7-33.83 45.95-33.8 47.07-33.8 48.2-33.8 48.85-33.8L48.85-33.8 48.85-6.9Q48.85-5.05 49.2-4.05 49.55-3.05 50.55-2.65 51.55-2.25 53.4-2.25L53.4-2.25 53.4 0Q52 0 50.17 0 48.35 0 46.47 0.03 44.6 0.05 43 0.08 41.4 0.1 40.45 0.15L40.45 0.15Q40.45-0.55 40.5-1.07 40.55-1.6 40.7-2L40.7-2Q42.05-2.1 42.8-2.5 43.55-2.9 43.85-3.93 44.15-4.95 44.15-6.9L44.15-6.9 44.15-27.45Q44.15-29.15 43.85-30.05 43.55-30.95 42.8-31.35 42.05-31.75 40.7-31.8L40.7-31.8Q40.55-32.2 40.5-32.77 40.45-33.35 40.45-33.95ZM63.45-8.55L63.45-8.55Q64.2-8.35 64.7-8.08 65.2-7.8 65.65-7.35L65.65-7.35Q65.1-5.65 64.72-3.65 64.35-1.65 64.1 0.1L64.1 0.1Q63.15 0.05 61.52 0.05 59.9 0.05 57.82 0.03 55.75 0 53.4 0L53.4 0 53.4-2.25 53.7-2.25Q57.3-2.25 59.12-2.98 60.95-3.7 61.85-5.1 62.75-6.5 63.45-8.55ZM59.95-22.5L59.95-22.5Q59.9-21.25 59.87-19.8 59.85-18.35 59.85-17.05L59.85-17.05Q59.85-15.75 59.87-14.15 59.9-12.55 59.95-11.25L59.95-11.25Q59.3-11.25 58.75-11.3 58.2-11.35 57.65-11.5L57.65-11.5Q57.45-14.1 56.27-15.03 55.1-15.95 52-15.95L52-15.95 48.4-15.95 48.4-18.1 52-18.1Q55.1-18.1 56.3-18.9 57.5-19.7 57.55-22.15L57.55-22.15Q58.2-22.35 58.75-22.43 59.3-22.5 59.95-22.5ZM62.9-33.95L62.9-33.95Q63-32.85 63.15-31.4 63.3-29.95 63.5-28.55 63.7-27.15 63.95-26.05L63.95-26.05Q63.55-25.7 62.97-25.58 62.4-25.45 61.7-25.45L61.7-25.45Q61.6-27 60.9-28.45 60.2-29.9 58.47-30.85 56.75-31.8 53.5-31.8L53.5-31.8 47.8-31.8 48.85-33.8Q52.8-33.8 55.62-33.83 58.45-33.85 60.27-33.9 62.1-33.95 62.9-33.95ZM92.55 0.45L92.55 0.45Q91.55-1.2 90.9-2.33 90.25-3.45 89.75-4.42 89.25-5.4 88.6-6.55L88.6-6.55Q87.65-8.35 86.75-9.8 85.85-11.25 84.67-12.75 83.5-14.25 81.75-16.05L81.75-16.05 83.05-15.4Q81.75-15.35 80.65-15.35 79.55-15.35 78.55-15.4L78.55-15.4 78.55-17.75Q79.25-17.65 79.85-17.6 80.45-17.55 81.1-17.55L81.1-17.55Q83.85-17.55 86.05-18.32 88.25-19.1 89.55-20.75 90.85-22.4 90.85-25L90.85-25Q90.85-27.95 88.97-29.83 87.1-31.7 82.6-31.7L82.6-31.7Q81.45-31.7 80.55-31.6 79.65-31.5 78.65-31.25L78.65-31.25 78.9-31.8 78.9-6.35Q78.9-4.7 79.2-3.78 79.5-2.85 80.22-2.48 80.95-2.1 82.2-2L82.2-2Q82.35-1.55 82.4-0.98 82.45-0.4 82.45 0.15L82.45 0.15Q81.4 0.05 80.25 0.03 79.1 0 78.12 0 77.15 0 76.5 0L76.5 0Q75.2 0 73.42 0.03 71.65 0.05 70.5 0.15L70.5 0.15Q70.5-0.4 70.55-0.95 70.6-1.5 70.75-2L70.75-2Q72.1-2.1 72.85-2.48 73.6-2.85 73.9-3.78 74.2-4.7 74.2-6.35L74.2-6.35 74.2-27.45Q74.2-29.15 73.9-30.08 73.6-31 72.85-31.4 72.1-31.8 70.75-31.8L70.75-31.8Q70.6-32.3 70.55-32.8 70.5-33.3 70.5-33.9L70.5-33.9Q71.25-33.85 73-33.83 74.75-33.8 76.5-33.8L76.5-33.8Q78.55-33.8 80.65-33.85 82.75-33.9 84.85-33.9L84.85-33.9Q88.65-33.9 91.05-32.8 93.45-31.7 94.6-29.8 95.75-27.9 95.75-25.5L95.75-25.5Q95.75-23.2 94.65-21.33 93.55-19.45 91.52-18.18 89.5-16.9 86.7-16.25L86.7-16.25 86.95-16.85Q88.35-15.4 89.32-14.1 90.3-12.8 91.35-11.15 92.4-9.5 93.85-7L93.85-7Q94.9-5.25 95.72-4.23 96.55-3.2 97.65-2.73 98.75-2.25 100.59-2.15L100.59-2.15Q100.59-1.55 100.57-1.05 100.55-0.55 100.4 0L100.4 0Q98.55 0 96.47 0.08 94.4 0.15 92.55 0.45ZM123.74 0.45L123.74 0.45 111.69-25.75 112.19-25.75 110.49-8.8Q110.24-6.15 110.44-4.73 110.64-3.3 111.47-2.73 112.29-2.15 113.74-2L113.74-2Q113.89-1.5 113.94-0.85 113.99-0.2 113.99 0.15L113.99 0.15Q112.79 0.05 111.27 0.03 109.74 0 108.64 0L108.64 0Q107.94 0 107.02 0.03 106.09 0.05 105.22 0.08 104.34 0.1 103.64 0.15L103.64 0.15Q103.64-0.2 103.69-0.85 103.74-1.5 103.89-2L103.89-2Q105.24-2.15 106.02-2.68 106.79-3.2 107.24-4.7 107.69-6.2 107.94-9.25L107.94-9.25 109.54-27.05Q109.69-28.85 109.42-29.88 109.14-30.9 108.37-31.35 107.59-31.8 106.19-31.8L106.19-31.8Q106.04-32.3 105.99-32.9 105.94-33.5 105.94-33.95L105.94-33.95Q106.44-33.9 107.09-33.88 107.74-33.85 108.44-33.83 109.14-33.8 109.74-33.8L109.74-33.8Q110.39-33.8 111.02-33.83 111.64-33.85 112.27-33.88 112.89-33.9 113.54-33.95L113.54-33.95 126.64-5 125.54-5 136.94-33.95Q137.54-33.9 138.19-33.88 138.84-33.85 139.52-33.83 140.19-33.8 140.84-33.8L140.84-33.8Q141.49-33.8 142.12-33.83 142.74-33.85 143.37-33.88 143.99-33.9 144.64-33.95L144.64-33.95Q144.64-33.45 144.59-32.9 144.54-32.35 144.39-31.8L144.39-31.8Q142.64-31.8 141.67-30.78 140.69-29.75 140.99-26.75L140.99-26.75 142.79-8.4Q143.04-5.95 143.44-4.6 143.84-3.25 144.57-2.7 145.29-2.15 146.44-2.05L146.44-2.05Q146.59-1.55 146.64-0.95 146.69-0.35 146.69 0.15L146.69 0.15Q146.09 0.1 145.34 0.08 144.59 0.05 143.77 0.03 142.94 0 142.17 0 141.39 0 140.69 0L140.69 0Q139.79 0 138.69 0.03 137.59 0.05 136.52 0.08 135.44 0.1 134.59 0.15L134.59 0.15Q134.59-0.3 134.67-0.9 134.74-1.5 134.89-2L134.89-2Q136.49-2.15 137.22-2.65 137.94-3.15 138.07-4.35 138.19-5.55 137.94-7.75L137.94-7.75 136.04-25.95 136.59-25.95 125.79 0.1Q125.34 0.3 124.84 0.38 124.34 0.45 123.74 0.45ZM166.34-34.1L166.34-34.1 178.24-6.8Q179.09-4.95 179.64-3.95 180.19-2.95 180.77-2.55 181.34-2.15 182.09-2L182.09-2Q182.29-1.35 182.34-0.9 182.39-0.45 182.39 0.15L182.39 0.15Q181.89 0.1 180.84 0.08 179.79 0.05 178.64 0.03 177.49 0 176.69 0L176.69 0Q176.09 0 175.29 0.03 174.49 0.05 173.64 0.08 172.79 0.1 172.12 0.13 171.44 0.15 171.04 0.15L171.04 0.15Q171.04-0.45 171.12-1 171.19-1.55 171.39-2L171.39-2Q173.44-2.25 173.82-2.93 174.19-3.6 173.19-5.9L173.19-5.9 166.24-22.15Q165.59-23.7 165.09-24.9 164.59-26.1 163.89-27.95L163.89-27.95 164.14-27.95Q163.54-26.05 163.07-24.73 162.59-23.4 162.14-22.2L162.14-22.2 156.44-7.35Q155.34-4.4 155.77-3.28 156.19-2.15 158.24-2L158.24-2Q158.44-1.55 158.52-1 158.59-0.45 158.59 0.15L158.59 0.15Q158.04 0.1 157.24 0.08 156.44 0.05 155.57 0.03 154.69 0 153.84 0L153.84 0Q152.59 0 151.49 0.05 150.39 0.1 149.69 0.15L149.69 0.15Q149.69-0.35 149.77-0.93 149.84-1.5 150.04-1.95L150.04-1.95Q150.94-2.15 151.54-2.65 152.14-3.15 152.72-4.28 153.29-5.4 154.04-7.35L154.04-7.35 164.39-33.9Q164.89-34 165.32-34.05 165.74-34.1 166.34-34.1ZM158.04-13.25L170.89-13.25 171.34-11Q167.99-11 164.17-10.95 160.34-10.9 157.24-10.8L157.24-10.8 158.04-13.25ZM213.44-7.5L213.34 0.3 189.94-30.25Q189.24-31.15 188.59-31.43 187.94-31.7 186.69-31.8L186.69-31.8Q186.54-32.35 186.49-32.95 186.44-33.55 186.44-33.95L186.44-33.95Q186.94-33.9 187.56-33.88 188.19-33.85 188.86-33.83 189.54-33.8 190.14-33.8L190.14-33.8Q191.09-33.8 191.96-33.85 192.84-33.9 193.49-33.95L193.49-33.95 213.44-7.5ZM186.44 0.15L186.44 0.15Q186.44-0.5 186.49-1.03 186.54-1.55 186.69-2L186.69-2Q188.04-2 188.79-2.65 189.54-3.3 189.84-4.93 190.14-6.55 190.14-9.35L190.14-9.35 190.14-30.5 192.69-30.5 192.69-9.35Q192.69-6.55 192.99-4.93 193.29-3.3 194.04-2.65 194.79-2 196.14-2L196.14-2Q196.29-1.55 196.34-1.05 196.39-0.55 196.39 0.15L196.39 0.15Q195.64 0.1 194.76 0.08 193.89 0.05 193.04 0.03 192.19 0 191.44 0L191.44 0Q190.74 0 189.79 0.03 188.84 0.05 187.96 0.08 187.09 0.1 186.44 0.15ZM213.34 0.3L213.34 0.3 212.94-4.7 212.94-24.7Q212.94-27.45 212.64-28.98 212.34-30.5 211.59-31.15 210.84-31.8 209.49-31.8L209.49-31.8Q209.34-32.65 209.29-33.08 209.24-33.5 209.24-33.95L209.24-33.95Q209.99-33.9 210.79-33.88 211.59-33.85 212.41-33.83 213.24-33.8 213.94-33.8L213.94-33.8Q214.99-33.8 216.34-33.85 217.69-33.9 218.69-33.95L218.69-33.95Q218.69-33.45 218.64-32.9 218.59-32.35 218.44-31.8L218.44-31.8Q217.34-31.8 216.69-31.15 216.04-30.5 215.76-28.98 215.49-27.45 215.49-24.7L215.49-24.7 215.49 0Q215.09 0.15 214.49 0.23 213.89 0.3 213.34 0.3ZM238.99 0.45L238.99 0.45Q234.04 0.45 230.34-1.85 226.64-4.15 224.56-8.1 222.49-12.05 222.49-17L222.49-17Q222.49-20.85 223.76-24 225.04-27.15 227.29-29.45 229.54-31.75 232.54-33 235.54-34.25 238.99-34.25L238.99-34.25Q243.79-34.25 247.51-32.08 251.24-29.9 253.39-26.03 255.54-22.15 255.54-17L255.54-17Q255.54-13.3 254.34-10.13 253.14-6.95 250.91-4.58 248.69-2.2 245.66-0.88 242.64 0.45 238.99 0.45ZM239.99-2L239.99-2Q243.24-2 245.56-3.83 247.89-5.65 249.14-8.78 250.39-11.9 250.39-15.7L250.39-15.7Q250.39-20.2 248.76-23.88 247.14-27.55 244.34-29.7 241.54-31.85 237.94-31.85L237.94-31.85Q234.99-31.85 232.66-30.18 230.34-28.5 228.99-25.45 227.64-22.4 227.64-18.35L227.64-18.35Q227.64-15.2 228.44-12.25 229.24-9.3 230.81-7 232.39-4.7 234.69-3.35 236.99-2 239.99-2ZM263.13-35.7L263.13-35.7Q264.08-35.55 264.18-34.5L264.18-34.5Q264.18-34.4 264.18-34.27 264.18-34.15 264.18-34.05L264.18-34.05Q263.88-31.9 263.71-29.5 263.53-27.1 263.28-23.85L263.28-23.85Q262.78-23.85 262.16-23.98 261.53-24.1 261.28-24.35L261.28-24.35Q261.18-27 260.93-29.6 260.68-32.2 260.28-34.65L260.28-34.65Q260.98-34.75 261.81-35.05 262.63-35.35 263.13-35.7ZM280.73 0.45L280.73 0.45Q277.63 0.45 275.31-0.43 272.98-1.3 270.58-2.75L270.58-2.75Q270.88-4.65 270.95-6.55 271.03-8.45 271.03-9.85L271.03-9.85Q271.58-10 272.33-10.08 273.08-10.15 273.73-10.15L273.73-10.15Q273.88-7.6 274.66-5.78 275.43-3.95 277.11-2.95 278.78-1.95 281.43-1.95L281.43-1.95Q284.88-1.95 286.36-3.48 287.83-5 287.83-7.15L287.83-7.15Q287.83-9.35 286.63-10.78 285.43-12.2 283.53-13.2 281.63-14.2 279.5-15.15 277.38-16.1 275.48-17.35 273.58-18.6 272.38-20.48 271.18-22.35 271.18-25.25L271.18-25.25Q271.18-28.05 272.41-30.08 273.63-32.1 275.88-33.18 278.13-34.25 281.23-34.25L281.23-34.25Q282.98-34.25 284.56-33.95 286.13-33.65 287.43-33.15 288.73-32.65 289.58-32.05L289.58-32.05Q289.58-30.6 289.63-28.7 289.68-26.8 289.88-25.45L289.88-25.45Q289.33-25.25 288.56-25.13 287.78-25 287.08-25L287.08-25Q286.58-27.9 285.78-29.4 284.98-30.9 283.83-31.48 282.68-32.05 281.18-32.05L281.18-32.05Q278.53-32.05 277.03-30.75 275.53-29.45 275.53-27.1L275.53-27.1Q275.53-24.9 276.73-23.45 277.93-22 279.83-20.95 281.73-19.9 283.83-18.93 285.93-17.95 287.83-16.73 289.73-15.5 290.93-13.7 292.13-11.9 292.13-9.15L292.13-9.15Q292.13-6.65 290.93-4.45 289.73-2.25 287.23-0.9 284.73 0.45 280.73 0.45Z" opacity="1" transform="matrix(1,0,0,1,0,0)" fill="#000000" class="wordmark-text-0" data-fill-palette-color="quaternary" id="text-0"></path></svg></g></svg></g><g transform="matrix(1,0,0,1,0,102.20624711840125)"><svg viewBox="0 0 395.52 16.64595489076026" height="16.64595489076026" width="395.52"><g transform="matrix(1,0,0,1,0,0)"><svg width="395.52" viewBox="2.4250001907348633 -37.599998474121094 932.7150268554688 39.2599983215332" height="16.64595489076026" data-palette-color="#454545"><path d="M2.44-3.42L2.44-3.42 2.44-36.04Q2.44-36.87 6.25-36.87L6.25-36.87Q6.67-36.87 7.43-36.84 8.2-36.82 8.5-36.82L8.5-36.82Q10.42-36.82 14.25-36.89 18.07-36.96 20.02-36.96L20.02-36.96Q21.36-36.96 24.01-36.91 26.66-36.87 28.13-36.87L28.13-36.87Q28.32-36.87 28.71-36.89 29.1-36.91 29.3-36.91L29.3-36.91Q30.18-36.91 30.52-36.58 30.86-36.25 30.86-35.3L30.86-35.3 30.86-26.76Q29.44-26.64 27.91-26.6 26.37-26.56 24-26.54 21.63-26.51 21.04-26.51L21.04-26.51 17.68-26.51Q17.68-26.05 17.65-25.17 17.63-24.29 17.63-23.83L17.63-23.83 17.63-23.49Q17.68-23.39 17.68-23.14L17.68-23.14Q23.22-23.54 27.05-23.54L27.05-23.54Q28.2-23.54 29.09-23.36 29.98-23.19 29.98-22.85L29.98-22.85 29.98-14.7Q29.98-13.62 29.57-13.26 29.15-12.89 28.27-12.89L28.27-12.89Q28.08-12.89 27.56-12.94 27.05-12.99 26.76-12.99L26.76-12.99Q21.8-12.67 17.72-12.6L17.72-12.6Q17.72-11.11 17.8-8.11 17.87-5.1 17.87-3.61L17.87-3.61 17.87-0.59Q17.87 0.12 17.72 0.35 17.58 0.59 16.99 0.68L16.99 0.68Q14.65 0.68 10.06 0.73 5.47 0.78 3.13 0.78L3.13 0.78Q2.93 0.49 2.8 0.15 2.66-0.2 2.59-0.46 2.51-0.73 2.48-1.21 2.44-1.68 2.43-1.89 2.42-2.1 2.43-2.69 2.44-3.27 2.44-3.42ZM33.1-0.98L33.1-33.59 37.64-33.59Q39.74-33.59 44.36-33.69 48.97-33.79 51.27-33.79L51.27-33.79Q53.24-33.79 54.97-33.57 56.69-33.35 58.36-32.76 60.03-32.18 61.22-31.27 62.4-30.37 63.13-28.89 63.86-27.42 63.86-25.49L63.86-25.49Q63.86-22.83 62.62-20.95 61.37-19.07 58.79-17.77L58.79-17.77Q59.81-17.33 60.57-16.63 61.33-15.92 61.73-15.41 62.13-14.89 62.51-13.68 62.89-12.48 62.96-12.1 63.03-11.72 63.28-10.23L63.28-10.23Q63.35-9.89 63.38-9.72L63.38-9.72Q63.47-8.74 64.21-6.14 64.94-3.54 64.94-2.15L64.94-2.15Q64.94-1.27 64.4-1.27L64.4-1.27Q62.94-1.27 59.97-1.25 57-1.22 55.56-1.22L55.56-1.22Q54.98-1.27 53.81-1.27L53.81-1.27 52.15-1.27Q51.66-1.42 51.19-2.78 50.73-4.15 50.53-5.86L50.53-5.86 50-10.21Q49.85-10.74 49.77-10.97 49.68-11.21 49.46-11.54 49.24-11.87 48.86-11.99 48.48-12.11 47.9-12.11L47.9-12.11 46.77-12.11 46.77-2.34Q46.77-2.27 46.77-2.11 46.77-1.95 46.77-1.89 46.77-1.83 46.77-1.71 46.77-1.59 46.75-1.53 46.73-1.46 46.7-1.37 46.68-1.27 46.64-1.23 46.6-1.2 46.54-1.14 46.48-1.07 46.4-1.05 46.31-1.03 46.2-1 46.09-0.98 45.94-0.98L45.94-0.98 33.1-0.98ZM46.92-20.7L46.92-20.7Q46.97-20.65 47.07-20.5 47.17-20.34 47.26-20.24 47.36-20.14 47.46-20.12L47.46-20.12Q48.19-20.12 48.92-20.28 49.66-20.43 50.42-20.8 51.19-21.17 51.67-21.92 52.15-22.68 52.15-23.73L52.15-23.73Q52.15-26.27 47.26-26.27L47.26-26.27Q46.77-26.15 46.77-25.88L46.77-25.88 46.77-24.95Q46.77-24.24 46.85-22.83 46.92-21.41 46.92-20.7ZM67.13-1.81L67.13-31.54Q67.13-33.01 67.26-33.25L67.26-33.25Q67.48-33.59 67.96-33.59L67.96-33.59 68.55-33.59Q68.94-33.59 69.09-33.54L69.09-33.54 70.36-33.54Q72.82-33.54 77.81-33.67 82.81-33.79 85.3-33.79L85.3-33.79 91.79-33.79Q92.43-33.72 92.43-33.15L92.43-33.15 92.43-25Q92.4-24.85 92.34-24.74 92.28-24.63 92.24-24.6 92.21-24.56 92.01-24.43 91.82-24.29 91.74-24.22L91.74-24.22 80.41-24.22 80.41-21.19 81.49-21.19Q82.91-21.19 85.81-21.29 88.72-21.39 90.28-21.39L90.28-21.39Q90.96-21.39 91.21-21.12 91.45-20.85 91.45-20.36L91.45-20.36Q91.45-20.24 91.4-19.95 91.35-19.65 91.35-19.53L91.35-19.53 91.35-18.6Q91.35-18.51 91.38-18.2 91.4-17.9 91.4-17.68L91.4-17.68 91.4-16.99Q91.4-16.46 91.45-15.92 91.5-15.38 91.5-14.99L91.5-14.99 91.5-14.36Q91.38-14.06 91.3-13.96 91.23-13.87 91.06-13.87L91.06-13.87 91.06-13.92Q90.16-13.92 87.95-13.79 85.74-13.67 84.42-13.67L84.42-13.67 80.51-13.67 80.51-10.55Q80.71-10.55 81.1-10.52 81.49-10.5 81.68-10.5L81.68-10.5Q82.78-10.5 84.93-10.57 87.08-10.64 88.03-10.64L88.03-10.64 91.16-10.64Q92.43-10.64 92.77-10.35L92.77-10.35Q92.89-10.21 92.96-10.06L92.96-10.06 92.96-2.25Q92.96-1.73 92.77-1.46 92.57-1.2 92.04-1.17L92.04-1.17 67.87-1.17 67.13-1.81ZM114.64-24.12L114.64-24.12Q113.98-24.12 113.57-24.32 113.15-24.51 112.91-24.8 112.66-25.1 112.36-25.39 112.05-25.68 111.39-25.88 110.73-26.07 109.71-26.07L109.71-26.07Q109.39-26.07 108.94-26.01 108.49-25.95 107.95-25.68 107.41-25.42 107.41-25L107.41-25Q107.41-24.54 107.87-24.21 108.32-23.88 108.89-23.74 109.47-23.61 110.19-23.43 110.91-23.24 111.2-23.1L111.2-23.1 114.79-22.22Q116.37-21.78 117.64-21.29 118.91-20.8 120.34-19.96 121.77-19.12 122.72-18.09 123.67-17.07 124.31-15.52 124.94-13.96 124.94-12.11L124.94-12.11Q124.94-9.86 124.36-8.11L124.36-8.11 124.36-8.15Q123.85-6.59 122.92-5.36 121.99-4.13 120.72-3.31 119.45-2.49 118.16-1.94 116.86-1.39 115.17-1.06 113.47-0.73 112.14-0.57 110.81-0.42 109.07-0.29L109.07-0.29Q101.38-0.68 98.77-2.73L98.77-2.73 98.77-3.03Q96.55-4.69 95.49-6.64 94.43-8.59 94.23-11.04L94.23-11.04Q94.23-11.62 94.77-11.62L94.77-11.62Q94.91-11.62 95.21-11.6 95.5-11.57 95.65-11.57L95.65-11.57 98.14-11.57Q98.48-11.62 99.11-11.62L99.11-11.62 99.75-11.62Q99.94-11.62 100.09-11.57L100.09-11.57Q101.51-11.62 104.92-11.62L104.92-11.62 106.05-11.62Q106.54-11.62 106.8-11.33 107.07-11.04 107.23-10.61 107.39-10.18 107.6-9.75 107.81-9.33 108.34-9.03 108.88-8.74 109.76-8.74L109.76-8.74Q110.71-8.74 111.48-9.24 112.25-9.74 112.25-10.69L112.25-10.69Q112.25-11.13 111.83-11.52 111.42-11.91 110.59-12.23 109.76-12.55 109.11-12.74 108.46-12.94 107.37-13.21 106.27-13.48 105.95-13.57L105.95-13.57 104.48-13.57Q99.19-15.14 96.86-17.54 94.52-19.95 94.52-23.63L94.52-23.63Q94.52-26.07 95.44-28.03 96.35-29.98 97.86-31.23 99.36-32.47 101.38-33.31 103.41-34.16 105.51-34.51 107.61-34.86 109.86-34.86L109.86-34.86Q113.84-34.86 117.24-33.53 120.65-32.2 122.4-30.08L122.4-30.08Q123.04-29.44 123.43-28.47 123.82-27.49 123.93-26.92 124.04-26.34 124.21-25L124.21-25 123.53-24.02 119.38-24.02Q118.69-24.02 117.11-24.07 115.52-24.12 114.64-24.12ZM159.32-32.57L159.32-32.57 159.32-2.54Q159.32-2.03 159.28-1.72 159.24-1.42 159.07-1.15 158.9-0.88 158.58-0.88L158.58-0.88 146.13-0.88 146.13-1.42Q146.08-1.46 145.75-1.64 145.42-1.81 145.35-1.95L145.35-1.95 145.35-11.82Q145.35-12.35 145.27-12.43 145.18-12.5 144.57-12.5L144.57-12.5 142.91-12.5Q142.32-12.5 141.54-12.4L141.54-12.4 141.54-1.86Q141.45-1.42 141.16-1.29 140.88-1.17 140.32-1.17L140.32-1.17 139.2-1.17Q138.05-1.17 135.6-1.12 133.14-1.07 131.87-1.07L131.87-1.07 128.65-1.07Q127.6-1.07 127.6-2.25L127.6-2.25 127.75-33.01Q127.75-33.13 127.82-33.22 127.9-33.3 128.12-33.46 128.33-33.62 128.36-33.64L128.36-33.64 141.49-33.64 141.49-23.14 145.74-23.14 145.74-33.89 158.19-33.89Q158.78-33.89 159.05-33.62 159.32-33.35 159.32-32.57ZM221.08 0.78L212.92 0.78Q210.07 0.78 208.55 0.43 207.04 0.07 205.5-0.98L205.5-0.98 204.53-0.98Q199.3 1.39 196.03 1.66L196.03 1.66 193.88 1.66Q189.07 1.66 185.28 0.24 181.48-1.17 179.38-3.64 177.28-6.1 177.28-9.18L177.28-9.18Q177.28-16.36 186.07-19.63L186.07-19.63Q183.82-21.04 182.36-23.33 180.89-25.61 180.89-28.03L180.89-28.03Q180.89-30.4 181.97-32.23 183.04-34.06 184.99-35.17 186.95-36.28 189.5-36.84 192.05-37.4 195.15-37.4L195.15-37.4Q198.03-37.4 200.6-36.94 203.16-36.47 205.43-35.49 207.7-34.5 209.04-32.68 210.39-30.86 210.39-28.42L210.39-28.42Q210.39-25.61 208.6-23.28 206.82-20.95 203.45-18.65L203.45-18.65Q204.72-17.53 207.16-15.23L207.16-15.23Q207.5-15.72 207.7-16.55 207.9-17.38 208.01-17.99 208.11-18.6 208.64-19.07 209.16-19.53 210.14-19.53L210.14-19.53 213.02-19.53Q213.61-19.53 214.88-19.51 216.15-19.48 216.83-19.48L216.83-19.48 217.95-19.48Q218.3-19.53 219.03-19.53L219.03-19.53Q219.44-19.46 219.61-19.27 219.78-19.09 219.86-18.65L219.86-18.65 219.86-17.68Q219.59-14.97 218.39-12.33 217.2-9.69 215.17-7.62L215.17-7.62 218-4.79Q218.22-4.52 219.35-3.49 220.47-2.47 221.24-1.54 222.01-0.61 222.01 0L222.01 0Q222.01 0.71 221.08 0.78L221.08 0.78ZM189.58-9.77L189.58-9.77Q189.58-8.76 190.1-7.95 190.61-7.13 191.42-6.65 192.22-6.18 193.14-5.92 194.05-5.66 194.96-5.66L194.96-5.66Q197.45-5.66 200.33-7.23L200.33-7.23Q199.35-8.3 197.38-10.11 195.42-11.91 194.96-12.35L194.96-12.35 193.64-13.57Q192.76-14.36 192.61-14.36L192.61-14.36Q191.46-13.82 190.52-12.46 189.58-11.11 189.58-9.77ZM191.78-27.93L191.78-27.93Q191.98-26.64 193.21-25.42 194.44-24.19 195.83-23.68L195.83-23.68Q195.91-23.68 195.98-23.71 196.05-23.73 196.13-23.73L196.13-23.73 197.3-24.66Q198.25-25.39 198.9-26.34 199.55-27.29 199.55-28.22L199.55-28.22Q199.55-29.25 198.83-29.94 198.11-30.64 197.23-30.9 196.35-31.15 195.44-31.15L195.44-31.15Q194-31.15 192.89-30.27 191.78-29.39 191.78-27.93ZM247.88 0.63L245 0.63Q244.32 0.63 243.41 0.67 242.51 0.71 242.02 0.73 241.53 0.76 240.91 0.72 240.29 0.68 239.97 0.55 239.65 0.42 239.3 0.15 238.94-0.12 238.79-0.59 238.63-1.05 238.52-1.73 238.41-2.42 238.41-3.37L238.41-3.37Q238.41-8.64 238.6-17.76 238.8-26.88 238.8-31.15L238.8-31.15Q238.8-36.43 239.34-36.72L239.34-36.72 248.42-36.72Q250.83-36.72 252.02-36.44 253.2-36.16 253.59-35.6 253.98-35.03 253.98-33.89L253.98-33.89Q253.98-33.54 253.94-32.56 253.89-31.57 253.89-30.91L253.89-30.91 253.89-29.79Q253.89-29 253.81-27.44 253.74-25.88 253.74-25.1L253.74-25.1 253.74-24.61Q253.79-24.46 253.79-24.22L253.79-24.22 254.77-24.22Q255.18-24.22 256.03-24.19 256.89-24.17 257.3-24.17L257.3-24.17Q258.43-24.17 258.96-24.32L258.96-24.32 258.96-34.47Q258.96-35.69 259.09-36.22 259.21-36.74 259.43-36.88 259.65-37.01 260.23-37.01L260.23-37.01Q260.55-37.01 261.26-36.99 261.97-36.96 262.28-36.96L262.28-36.96 264.09-37.04Q265.92-37.11 267.36-37.11L267.36-37.11Q274-37.11 274-35.64L274-35.64Q274-35.25 274.03-34.52 274.05-33.79 274.05-33.4L274.05-33.4Q274.05-32.54 274.03-30.91 274-29.27 274-28.42L274-28.42Q274-25.88 274.08-20.85 274.15-15.82 274.15-13.28L274.15-13.28Q274.15-13.06 274.13-12.73 274.1-12.4 274.1-12.3L274.1-12.3 274.1-11.13Q274.1-9.57 274.15-8.79L274.15-8.79 274.15-8.25Q274.1-8.15 274.1-7.96L274.1-7.96Q274.1-6.67 274.15-4.03 274.2-1.39 274.2-0.1L274.2-0.1Q274.03 0.78 269.51 0.78L269.51 0.78 259.36 0.78 258.62-0.24 258.62-1.86Q258.62-3.49 258.65-6.69 258.67-9.89 258.67-11.52L258.67-11.52Q258.67-12.08 258.54-12.29 258.4-12.5 257.99-12.5L257.99-12.5 257.11-12.5Q255.45-12.5 254.08-12.3L254.08-12.3Q254.08-10.28 254.03-6.21 253.98-2.15 253.98-0.1L253.98-0.1Q253.69 0.63 247.88 0.63L247.88 0.63ZM278.64-1.81L278.64-31.54Q278.64-33.01 278.76-33.25L278.76-33.25Q278.98-33.59 279.47-33.59L279.47-33.59 280.06-33.59Q280.45-33.59 280.59-33.54L280.59-33.54 281.86-33.54Q284.33-33.54 289.32-33.67 294.31-33.79 296.8-33.79L296.8-33.79 303.3-33.79Q303.93-33.72 303.93-33.15L303.93-33.15 303.93-25Q303.91-24.85 303.85-24.74 303.79-24.63 303.75-24.6 303.71-24.56 303.52-24.43 303.32-24.29 303.25-24.22L303.25-24.22 291.92-24.22 291.92-21.19 293-21.19Q294.41-21.19 297.32-21.29 300.22-21.39 301.78-21.39L301.78-21.39Q302.47-21.39 302.71-21.12 302.96-20.85 302.96-20.36L302.96-20.36Q302.96-20.24 302.91-19.95 302.86-19.65 302.86-19.53L302.86-19.53 302.86-18.6Q302.86-18.51 302.88-18.2 302.91-17.9 302.91-17.68L302.91-17.68 302.91-16.99Q302.91-16.46 302.96-15.92 303-15.38 303-14.99L303-14.99 303-14.36Q302.88-14.06 302.81-13.96 302.74-13.87 302.57-13.87L302.57-13.87 302.57-13.92Q301.66-13.92 299.45-13.79 297.24-13.67 295.92-13.67L295.92-13.67 292.02-13.67 292.02-10.55Q292.21-10.55 292.6-10.52 293-10.5 293.19-10.5L293.19-10.5Q294.29-10.5 296.44-10.57 298.59-10.64 299.54-10.64L299.54-10.64 302.66-10.64Q303.93-10.64 304.27-10.35L304.27-10.35Q304.4-10.21 304.47-10.06L304.47-10.06 304.47-2.25Q304.47-1.73 304.27-1.46 304.08-1.2 303.54-1.17L303.54-1.17 279.37-1.17 278.64-1.81ZM326.05-6.05L318.53-6.05Q318.36-5.49 318.2-4.58 318.04-3.66 317.91-3.14 317.77-2.61 317.46-2.04 317.14-1.46 316.49-1.2 315.84-0.93 314.82-0.93L314.82-0.93 304.27-0.93 304.27-1.76Q305.57-5.64 308.04-13.67 310.52-21.7 311.89-25.83L311.89-25.83 311.89-25.78Q312.72-28.15 314.33-33.2L314.33-33.2Q314.35-33.25 314.4-33.33L314.4-33.33Q314.62-33.69 314.82-33.89L314.82-33.89 328-33.79Q331.37-33.79 331.71-33.2L331.71-33.2 331.71-32.57Q331.76-32.35 332.25-31.45L332.25-31.45Q334.62-24.19 335.72-20.9L335.72-20.9 335.72-20.61Q335.81-19.9 336.16-18.99 336.5-18.09 336.97-17.05 337.45-16.02 337.65-15.43L337.65-15.43 338.62-11.91Q339.48-9.08 341.14-4.35L341.14-4.35 341.14-4.39 341.14-3.91Q341.21-3.56 341.5-2.98 341.8-2.39 341.87-2.15L341.87-2.15Q341.87-1.46 341.59-1.27 341.31-1.07 340.5-1.07L340.5-1.07 329.17-1.07Q328.76-1.12 328.64-1.15 328.52-1.17 328.26-1.25 328-1.32 327.89-1.44 327.78-1.56 327.76-1.76L327.76-1.76 326.83-5.47Q326.73-5.93 326.64-5.99 326.54-6.05 326.05-6.05L326.05-6.05ZM319.7-14.65L319.7-14.75 319.7-14.65ZM325.07-17.68L325.07-17.68Q324.93-18.36 324.65-19.89 324.36-21.41 324.1-22.55 323.83-23.68 323.51-24.66L323.51-24.66 323.51-25.83Q323.31-26.34 322.83-26.56L322.83-26.56 322.83-26.51Q322.24-26.39 321.65-23.24L321.65-23.24 321.65-22.07Q321.61-21.9 321.43-21.75 321.26-21.61 321.26-21.58L321.26-21.58Q320.46-18.02 319.95-15.82L319.95-15.82Q319.95-15.58 319.82-14.97 319.7-14.36 319.7-14.26L319.7-14.26 325.76-14.26Q325.76-14.89 325.32-16.55L325.32-16.55 325.32-17.09Q325.29-17.16 325.18-17.37 325.07-17.58 325.07-17.68ZM366.23-0.98L343.82-0.98Q343.75-1.07 343.59-1.2 343.43-1.32 343.23-1.66L343.23-1.66 343.23-12.21Q343.23-14.28 343.41-18.58 343.58-22.88 343.58-25.1L343.58-25.1Q343.58-25.59 343.48-27.17 343.38-28.76 343.38-29.69L343.38-29.69Q343.38-33.13 344.21-33.89L344.21-33.89Q349.29-33.79 351.78-33.79L351.78-33.79 354.12-33.79Q354.95-33.79 355.39-33.74L355.39-33.74Q355.44-33.79 355.64-33.79L355.64-33.79Q355.69-33.79 356.06-33.74 356.44-33.69 356.66-33.69L356.66-33.69Q357.27-33.62 357.69-32.67L357.69-32.67 357.69-32.32Q357.69-32.06 357.66-31.54 357.64-31.03 357.64-30.76L357.64-30.76 357.64-29.69Q357.61-29.57 357.33-29.26 357.05-28.96 357.05-28.76L357.05-28.76 357.05-10.94 367.4-10.94Q367.79-10.94 367.99-10.91 368.19-10.89 368.38-10.69 368.58-10.5 368.58-10.11L368.58-10.11 368.58-1.95Q368.38-0.98 366.23-0.98L366.23-0.98ZM368.43-24.71L368.43-24.71 368.43-33.5 396.85-33.5Q397.24-33.42 397.33-33.19 397.43-32.96 397.43-32.52L397.43-32.52 397.43-24.71Q397.38-24.12 396.75-24.12L396.75-24.12 389.81-24.12 389.81-1.66Q389.81-1.64 389.79-1.54 389.76-1.44 389.76-1.42 389.76-1.39 389.74-1.32 389.72-1.25 389.69-1.22 389.67-1.2 389.64-1.14 389.62-1.07 389.58-1.06 389.55-1.05 389.48-1.01 389.42-0.98 389.36-0.95 389.3-0.93 389.22-0.92 389.13-0.9 389.03-0.88L389.03-0.88 387.47-0.88Q384.35-0.88 384.35-1.07L384.35-1.07Q384.15-1.07 383.76-1.05 383.37-1.03 383.17-1.03L383.17-1.03 381.22-1.03Q380.66-1.03 379.62-1 378.58-0.98 378-0.98L378-0.98 376.63-0.98 375.65-1.66 375.65-6.93Q375.68-8.35 375.86-12.99 376.04-17.63 376.04-20.31L376.04-20.31 376.04-20.95Q376.04-21.14 376.07-21.56 376.09-21.97 376.09-22.17L376.09-22.17Q376.09-22.39 376.07-23.06 376.04-23.73 376.04-23.93L376.04-23.93 369.94-23.93Q369.4-23.93 368.92-24.11 368.43-24.29 368.43-24.71ZM430.92-32.57L430.92-32.57 430.92-2.54Q430.92-2.03 430.89-1.72 430.85-1.42 430.68-1.15 430.51-0.88 430.19-0.88L430.19-0.88 417.74-0.88 417.74-1.42Q417.69-1.46 417.36-1.64 417.03-1.81 416.96-1.95L416.96-1.95 416.96-11.82Q416.96-12.35 416.87-12.43 416.79-12.5 416.18-12.5L416.18-12.5 414.52-12.5Q413.93-12.5 413.15-12.4L413.15-12.4 413.15-1.86Q413.05-1.42 412.77-1.29 412.49-1.17 411.93-1.17L411.93-1.17 410.81-1.17Q409.66-1.17 407.21-1.12 404.75-1.07 403.48-1.07L403.48-1.07 400.26-1.07Q399.21-1.07 399.21-2.25L399.21-2.25 399.36-33.01Q399.36-33.13 399.43-33.22 399.5-33.3 399.72-33.46 399.94-33.62 399.97-33.64L399.97-33.64 413.1-33.64 413.1-23.14 417.35-23.14 417.35-33.89 429.8-33.89Q430.39-33.89 430.66-33.62 430.92-33.35 430.92-32.57ZM433.85-33.69L446.77-33.69 450.6-21.63Q452.46-26.59 454.07-31.54L454.07-31.54Q454.12-31.74 454.36-32.28 454.6-32.81 454.65-33.15L454.65-33.15Q454.85-33.74 457.29-33.74L457.29-33.74Q457.46-33.74 457.77-33.72 458.07-33.69 458.27-33.69L458.27-33.69Q462.25-33.74 466.86-33.79L466.86-33.79Q467.45-33.72 467.69-32.59L467.69-32.59 456.61-12.52 457-10.89Q457-9.47 457.05-6.57 457.09-3.66 457.09-2.54L457.09-2.54 457.09-1.81Q457-1.46 456.72-1.25 456.43-1.03 455.93-0.96 455.43-0.9 455.06-0.89 454.68-0.88 453.98-0.9 453.29-0.93 453.04-0.93L453.04-0.93 443.72-0.93 442.93-1.95 442.93-12.16 437.29-24.19 434.68-27.86Q432.68-31.86 432.68-33.01L432.68-33.01Q432.68-33.69 433.85-33.69L433.85-33.69ZM482.87-18.26L482.87-18.26Q482.87-21.63 483.63-24.44 484.38-27.25 485.64-29.2 486.9-31.15 488.67-32.67 490.44-34.18 492.32-35.1 494.2-36.01 496.36-36.6 498.52-37.18 500.4-37.39 502.28-37.6 504.21-37.6L504.21-37.6Q505.62-37.6 506.98-37.48 508.33-37.35 510.03-37.05 511.73-36.74 513.2-36.11 514.68-35.47 516.04-34.56 517.39-33.64 518.39-32.19 519.39-30.74 519.83-28.91L519.83-28.91Q519.96-28.2 520.32-24.9L520.32-24.9Q520.22-24.17 518.76-24.17L518.76-24.17Q516.66-24.17 512.66-24.27 508.65-24.37 506.65-24.37L506.65-24.37Q506.36-24.46 506.19-24.76 506.01-25.05 505.95-25.39 505.89-25.73 505.76-26.12 505.62-26.51 505.42-26.82 505.21-27.12 504.68-27.33 504.16-27.54 503.38-27.54L503.38-27.54Q502.35-27.54 501.55-27.19 500.74-26.83 500.23-26.32 499.72-25.81 499.35-24.93 498.98-24.05 498.8-23.33 498.62-22.61 498.52-21.5 498.42-20.39 498.41-19.75 498.4-19.12 498.4-18.07L498.4-18.07Q498.4-17.75 498.42-17.29 498.45-16.82 498.45-16.65L498.45-16.65 498.45-15.92Q498.45-15.14 498.47-14.62 498.5-14.11 498.61-13.31 498.71-12.5 498.91-11.95 499.11-11.4 499.48-10.78 499.86-10.16 500.41-9.78 500.96-9.4 501.79-9.14 502.62-8.89 503.67-8.89L503.67-8.89Q506.38-8.89 508.11-9.42L508.11-9.42 508.11-12.4 507.04-12.4 507.04-12.35 505.28-12.35Q505.09-12.35 504.59-12.33 504.09-12.3 503.77-12.3L503.77-12.3 502.89-13.28 502.89-20.02Q502.89-20.65 503.77-21.39L503.77-21.39 505.53-21.39Q507.36-21.39 509.97-21.34 512.58-21.29 513.97-21.29L513.97-21.29 515.93-21.29Q517.34-21.29 518.14-21.26 518.93-21.24 519.91-21.03 520.88-20.83 521.2-20.41L521.2-20.41Q521.2-17.21 521.05-11.08 520.91-4.96 520.91-2.2L520.91-2.2Q520.91-2.12 520.93-1.97 520.96-1.81 520.96-1.71L520.96-1.71 520.96-1.17Q520.13-0.2 515.54 0.54 510.95 1.27 507.82 1.27L507.82 1.27 507.19 1.27Q506.5 1.27 505.16 1.37 503.82 1.46 503.13 1.46L503.13 1.46Q493.29 1.46 488.08-3.8 482.87-9.06 482.87-18.26ZM525.1-0.98L525.1-33.59 529.64-33.59Q531.74-33.59 536.36-33.69 540.97-33.79 543.27-33.79L543.27-33.79Q545.25-33.79 546.97-33.57 548.69-33.35 550.36-32.76 552.03-32.18 553.22-31.27 554.4-30.37 555.13-28.89 555.87-27.42 555.87-25.49L555.87-25.49Q555.87-22.83 554.62-20.95 553.38-19.07 550.79-17.77L550.79-17.77Q551.81-17.33 552.57-16.63 553.33-15.92 553.73-15.41 554.13-14.89 554.51-13.68 554.89-12.48 554.96-12.1 555.04-11.72 555.28-10.23L555.28-10.23Q555.35-9.89 555.38-9.72L555.38-9.72Q555.48-8.74 556.21-6.14 556.94-3.54 556.94-2.15L556.94-2.15Q556.94-1.27 556.4-1.27L556.4-1.27Q554.94-1.27 551.97-1.25 549.01-1.22 547.56-1.22L547.56-1.22Q546.98-1.27 545.81-1.27L545.81-1.27 544.15-1.27Q543.66-1.42 543.19-2.78 542.73-4.15 542.54-5.86L542.54-5.86 542-10.21Q541.85-10.74 541.77-10.97 541.68-11.21 541.46-11.54 541.24-11.87 540.86-11.99 540.48-12.11 539.9-12.11L539.9-12.11 538.78-12.11 538.78-2.34Q538.78-2.27 538.78-2.11 538.78-1.95 538.78-1.89 538.78-1.83 538.78-1.71 538.78-1.59 538.75-1.53 538.73-1.46 538.7-1.37 538.68-1.27 538.64-1.23 538.6-1.2 538.54-1.14 538.48-1.07 538.4-1.05 538.31-1.03 538.2-1 538.09-0.98 537.95-0.98L537.95-0.98 525.1-0.98ZM538.92-20.7L538.92-20.7Q538.97-20.65 539.07-20.5 539.17-20.34 539.26-20.24 539.36-20.14 539.46-20.12L539.46-20.12Q540.19-20.12 540.92-20.28 541.66-20.43 542.43-20.8 543.19-21.17 543.67-21.92 544.15-22.68 544.15-23.73L544.15-23.73Q544.15-26.27 539.26-26.27L539.26-26.27Q538.78-26.15 538.78-25.88L538.78-25.88 538.78-24.95Q538.78-24.24 538.85-22.83 538.92-21.41 538.92-20.7ZM572.22-0.93L558.84-0.93 558.84-33.01Q558.87-33.2 559.23-33.36 559.6-33.52 559.67-33.59L559.67-33.59 572.81-33.59 572.81-1.81Q572.68-1.29 572.57-1.11 572.46-0.93 572.22-0.93L572.22-0.93ZM600.25-0.98L577.83-0.98Q577.76-1.07 577.6-1.2 577.44-1.32 577.25-1.66L577.25-1.66 577.25-12.21Q577.25-14.28 577.42-18.58 577.59-22.88 577.59-25.1L577.59-25.1Q577.59-25.59 577.49-27.17 577.39-28.76 577.39-29.69L577.39-29.69Q577.39-33.13 578.22-33.89L578.22-33.89Q583.3-33.79 585.79-33.79L585.79-33.79 588.14-33.79Q588.97-33.79 589.41-33.74L589.41-33.74Q589.45-33.79 589.65-33.79L589.65-33.79Q589.7-33.79 590.08-33.74 590.46-33.69 590.68-33.69L590.68-33.69Q591.29-33.62 591.7-32.67L591.7-32.67 591.7-32.32Q591.7-32.06 591.68-31.54 591.65-31.03 591.65-30.76L591.65-30.76 591.65-29.69Q591.63-29.57 591.35-29.26 591.07-28.96 591.07-28.76L591.07-28.76 591.07-10.94 601.42-10.94Q601.81-10.94 602-10.91 602.2-10.89 602.39-10.69 602.59-10.5 602.59-10.11L602.59-10.11 602.59-1.95Q602.39-0.98 600.25-0.98L600.25-0.98ZM627.73-0.98L605.32-0.98Q605.25-1.07 605.09-1.2 604.93-1.32 604.74-1.66L604.74-1.66 604.74-12.21Q604.74-14.28 604.91-18.58 605.08-22.88 605.08-25.1L605.08-25.1Q605.08-25.59 604.98-27.17 604.88-28.76 604.88-29.69L604.88-29.69Q604.88-33.13 605.71-33.89L605.71-33.89Q610.79-33.79 613.28-33.79L613.28-33.79 615.62-33.79Q616.45-33.79 616.89-33.74L616.89-33.74Q616.94-33.79 617.14-33.79L617.14-33.79Q617.19-33.79 617.56-33.74 617.94-33.69 618.16-33.69L618.16-33.69Q618.77-33.62 619.19-32.67L619.19-32.67 619.19-32.32Q619.19-32.06 619.16-31.54 619.14-31.03 619.14-30.76L619.14-30.76 619.14-29.69Q619.12-29.57 618.83-29.26 618.55-28.96 618.55-28.76L618.55-28.76 618.55-10.94 628.91-10.94Q629.3-10.94 629.49-10.91 629.69-10.89 629.88-10.69 630.08-10.5 630.08-10.11L630.08-10.11 630.08-1.95Q629.88-0.98 627.73-0.98L627.73-0.98ZM632.27-1.81L632.27-31.54Q632.27-33.01 632.39-33.25L632.39-33.25Q632.61-33.59 633.1-33.59L633.1-33.59 633.69-33.59Q634.08-33.59 634.22-33.54L634.22-33.54 635.49-33.54Q637.96-33.54 642.95-33.67 647.95-33.79 650.44-33.79L650.44-33.79 656.93-33.79Q657.56-33.72 657.56-33.15L657.56-33.15 657.56-25Q657.54-24.85 657.48-24.74 657.42-24.63 657.38-24.6 657.34-24.56 657.15-24.43 656.95-24.29 656.88-24.22L656.88-24.22 645.55-24.22 645.55-21.19 646.63-21.19Q648.04-21.19 650.95-21.29 653.85-21.39 655.42-21.39L655.42-21.39Q656.1-21.39 656.34-21.12 656.59-20.85 656.59-20.36L656.59-20.36Q656.59-20.24 656.54-19.95 656.49-19.65 656.49-19.53L656.49-19.53 656.49-18.6Q656.49-18.51 656.51-18.2 656.54-17.9 656.54-17.68L656.54-17.68 656.54-16.99Q656.54-16.46 656.59-15.92 656.64-15.38 656.64-14.99L656.64-14.99 656.64-14.36Q656.51-14.06 656.44-13.96 656.37-13.87 656.2-13.87L656.2-13.87 656.2-13.92Q655.29-13.92 653.08-13.79 650.88-13.67 649.56-13.67L649.56-13.67 645.65-13.67 645.65-10.55Q645.85-10.55 646.24-10.52 646.63-10.5 646.82-10.5L646.82-10.5Q647.92-10.5 650.07-10.57 652.22-10.64 653.17-10.64L653.17-10.64 656.3-10.64Q657.56-10.64 657.91-10.35L657.91-10.35Q658.03-10.21 658.1-10.06L658.1-10.06 658.1-2.25Q658.1-1.73 657.91-1.46 657.71-1.2 657.17-1.17L657.17-1.17 633-1.17 632.27-1.81ZM668.11-33.89L674.36-33.89Q677.7-33.89 680.38-33.45 683.05-33.01 685.5-31.88 687.96-30.76 689.59-28.96 691.23-27.15 692.19-24.27 693.16-21.39 693.16-17.58L693.16-17.58Q693.16-14.79 692.5-12.39 691.84-9.99 690.69-8.25 689.54-6.52 688.07-5.16 686.59-3.81 684.86-2.95 683.12-2.1 681.39-1.64 679.66-1.17 677.92-1.07L677.92-1.07 661.18-1.07 661.18-33.5Q661.25-33.5 661.44-33.47 661.64-33.45 661.71-33.45L661.71-33.45Q662.76-33.45 664.9-33.67 667.03-33.89 668.11-33.89L668.11-33.89ZM673.48-8.69L674.65-8.69Q675.9-8.69 676.85-9.09 677.8-9.5 678.38-10.25 678.95-11.01 679.33-11.84 679.71-12.67 679.88-13.79 680.05-14.92 680.11-15.76 680.17-16.6 680.17-17.68L680.17-17.68 680.17-19.43Q680.15-19.6 680.02-21.09 679.9-22.58 679.49-23.63L679.49-23.63Q679.1-24.39 678.62-24.94 678.14-25.49 677.68-25.79 677.22-26.1 676.59-26.26 675.97-26.42 675.46-26.46 674.94-26.51 674.21-26.51L674.21-26.51 674.21-25.98 673.48-25.98 673.48-8.69ZM746.57-13.09L746.57-13.09Q746.16-9.42 744.64-6.6 743.13-3.78 740.76-2.01 738.39-0.24 735.38 0.66 732.36 1.56 728.8 1.56L728.8 1.56Q725.48 1.56 722.74 0.84 720.01 0.12 718.13-1.07 716.25-2.27 714.81-3.99 713.37-5.71 712.51-7.53 711.66-9.35 711.13-11.51 710.61-13.67 710.43-15.54 710.24-17.41 710.24-19.43L710.24-19.43 710.24-21.58Q710.49-25.15 711.9-27.99 713.32-30.83 715.35-32.58 717.37-34.33 719.98-35.49 722.6-36.65 725.06-37.1 727.53-37.55 729.97-37.55L729.97-37.55Q733.9-37.55 736.92-36.61 739.93-35.67 741.83-33.96 743.74-32.25 744.81-30.04 745.89-27.83 746.18-25.1L746.18-25.1 746.18-22.75Q746.18-21.97 740.81-21.97L740.81-21.97Q739.54-21.97 737.28-22.02 735.02-22.07 734.31-22.07L734.31-22.07Q734.19-22.07 733.95-22.05 733.7-22.02 733.58-22.02L733.58-22.02Q732.95-22.02 732.62-22.55 732.29-23.07 732.18-23.83 732.07-24.58 731.91-25.34 731.75-26.1 731.25-26.62 730.75-27.15 729.87-27.15 728.99-27.15 728.33-26.86 727.67-26.56 727.28-25.94 726.89-25.32 726.64-24.68 726.38-24.05 726.27-23.03 726.16-22.02 726.12-21.33 726.09-20.63 726.06-19.47 726.04-18.31 726.01-17.77L726.01-17.77Q726.01-17.48 725.97-16.7 725.92-15.92 725.92-15.43L725.92-15.43Q725.92-9.35 729.14-9.18L729.14-9.18Q730.02-9.18 730.58-9.81 731.14-10.45 731.35-11.23 731.56-12.01 731.82-12.88 732.09-13.75 732.41-14.06L732.41-14.06 745.69-14.06Q746.5-13.99 746.57-13.09ZM780.94-32.57L780.94-32.57 780.94-2.54Q780.94-2.03 780.91-1.72 780.87-1.42 780.7-1.15 780.53-0.88 780.21-0.88L780.21-0.88 767.76-0.88 767.76-1.42Q767.71-1.46 767.38-1.64 767.05-1.81 766.98-1.95L766.98-1.95 766.98-11.82Q766.98-12.35 766.89-12.43 766.81-12.5 766.2-12.5L766.2-12.5 764.54-12.5Q763.95-12.5 763.17-12.4L763.17-12.4 763.17-1.86Q763.07-1.42 762.79-1.29 762.51-1.17 761.95-1.17L761.95-1.17 760.83-1.17Q759.68-1.17 757.23-1.12 754.77-1.07 753.5-1.07L753.5-1.07 750.28-1.07Q749.23-1.07 749.23-2.25L749.23-2.25 749.38-33.01Q749.38-33.13 749.45-33.22 749.52-33.3 749.74-33.46 749.96-33.62 749.99-33.64L749.99-33.64 763.12-33.64 763.12-23.14 767.37-23.14 767.37-33.89 779.82-33.89Q780.41-33.89 780.67-33.62 780.94-33.35 780.94-32.57ZM798.62-0.93L785.24-0.93 785.24-33.01Q785.26-33.2 785.63-33.36 785.99-33.52 786.07-33.59L786.07-33.59 799.2-33.59 799.2-1.81Q799.08-1.29 798.97-1.11 798.86-0.93 798.62-0.93L798.62-0.93ZM819.41-0.2L819.41-0.2Q815.34-0.2 812.09-1.57 808.84-2.95 806.77-5.4 804.69-7.84 803.61-11.1 802.52-14.36 802.52-18.21L802.52-18.21 802.52-18.55Q802.54-18.73 802.61-19.4 802.67-20.07 802.68-20.28 802.69-20.48 802.76-21.07 802.84-21.66 802.89-21.92 802.94-22.19 803.02-22.71 803.11-23.22 803.22-23.55 803.33-23.88 803.47-24.34 803.62-24.8 803.79-25.22 803.96-25.63 804.18-26.07L804.18-26.07 804.18-26.03Q805.3-28.37 807.01-30.08 808.72-31.79 810.77-32.73 812.82-33.67 814.97-34.09 817.12-34.52 819.51-34.52L819.51-34.52Q822.54-34.52 824.98-33.92 827.42-33.33 829.03-32.32 830.65-31.32 831.79-29.9 832.94-28.47 833.53-26.95 834.11-25.44 834.36-23.68L834.36-23.68 834.36-21.58Q834.28-21.24 833.99-21.06 833.7-20.87 833.36-20.84 833.01-20.8 832.4-20.8L832.4-20.8 821.95-20.8 821.95-22.9Q821.83-23.73 821.25-24.41 820.66-25.1 819.81-25.1L819.81-25.1Q819.05-25.1 818.47-24.78 817.9-24.46 817.57-23.94 817.24-23.41 817.03-22.72 816.83-22.02 816.77-21.25 816.7-20.48 816.67-19.69 816.63-18.9 816.68-18.19L816.68-18.19Q816.68-17.7 816.68-17.48L816.68-17.48 816.68-14.75Q816.68-14.14 816.74-13.56 816.8-12.99 817.03-12.08 817.27-11.18 817.85-10.62 818.44-10.06 819.32-10.06L819.32-10.06Q820.24-10.06 820.7-10.84 821.15-11.62 821.45-12.72 821.76-13.82 822.15-14.21L822.15-14.21Q823.13-14.21 825.08-14.18 827.03-14.16 828.01-14.16L828.01-14.16Q828.69-14.16 830.04-14.18 831.38-14.21 832.06-14.21L832.06-14.21 833.87-14.21Q834.67-14.21 834.75-13.23L834.75-13.23 834.75-12.3Q834.21-7.45 831.16-4.47 828.11-1.49 823.52-0.68L823.52-0.68 823.52-0.54Q821.88-0.2 819.41-0.2ZM848.61-0.88L838.31-0.88Q837.87-1.61 837.72-1.9L837.72-1.9 837.72-33.98 848.51-33.98Q848.59-33.98 848.9-34 849.22-34.01 849.39-34 849.56-33.98 849.87-33.96 850.17-33.94 850.37-33.87 850.56-33.81 850.77-33.7 850.98-33.59 851.11-33.4 851.25-33.2 851.3-32.96L851.3-32.96 851.3-22.12Q852.1-23.73 853.56-26.76 855.01-29.79 855.69-31.15L855.69-31.15 856.89-33.72 859.21-33.79Q859.7-33.79 860.68-33.74 861.67-33.69 862.14-33.69L862.14-33.69 863.99-33.69Q864.19-33.69 864.57-33.72 864.94-33.74 865.12-33.74L865.12-33.74 866.53-33.74Q866.63-33.74 866.87-33.79L866.87-33.79Q870.83-33.79 870.83-33.2L870.83-33.2Q870.83-32.86 870.39-32.28L870.39-32.28Q869.27-30.49 866.6-25.77 863.94-21.04 862.31-18.65L862.31-18.65 871.85-2.2Q871.85-2.17 871.85-2.03 871.85-1.88 871.85-1.83 871.85-1.78 871.84-1.67 871.83-1.56 871.8-1.5 871.78-1.44 871.74-1.35 871.71-1.27 871.65-1.21 871.59-1.15 871.51-1.07L871.51-1.07Q869.22-1.22 864.68-1.22L864.68-1.22Q864.07-1.22 862.8-1.2 861.53-1.17 860.92-1.17L860.92-1.17 857.6-1.17 857.6-1.86Q857.21-2.51 855.91-4.44 854.62-6.37 854.03-7.47L854.03-7.47 851.3-12.7 851.3-1.86Q850.96-0.88 848.61-0.88L848.61-0.88ZM873.51-1.81L873.51-31.54Q873.51-33.01 873.63-33.25L873.63-33.25Q873.85-33.59 874.34-33.59L874.34-33.59 874.93-33.59Q875.32-33.59 875.46-33.54L875.46-33.54 876.73-33.54Q879.2-33.54 884.19-33.67 889.19-33.79 891.68-33.79L891.68-33.79 898.17-33.79Q898.8-33.72 898.8-33.15L898.8-33.15 898.8-25Q898.78-24.85 898.72-24.74 898.66-24.63 898.62-24.6 898.58-24.56 898.39-24.43 898.19-24.29 898.12-24.22L898.12-24.22 886.79-24.22 886.79-21.19 887.87-21.19Q889.28-21.19 892.19-21.29 895.09-21.39 896.66-21.39L896.66-21.39Q897.34-21.39 897.58-21.12 897.83-20.85 897.83-20.36L897.83-20.36Q897.83-20.24 897.78-19.95 897.73-19.65 897.73-19.53L897.73-19.53 897.73-18.6Q897.73-18.51 897.75-18.2 897.78-17.9 897.78-17.68L897.78-17.68 897.78-16.99Q897.78-16.46 897.83-15.92 897.88-15.38 897.88-14.99L897.88-14.99 897.88-14.36Q897.75-14.06 897.68-13.96 897.61-13.87 897.44-13.87L897.44-13.87 897.44-13.92Q896.53-13.92 894.32-13.79 892.11-13.67 890.8-13.67L890.8-13.67 886.89-13.67 886.89-10.55Q887.09-10.55 887.48-10.52 887.87-10.5 888.06-10.5L888.06-10.5Q889.16-10.5 891.31-10.57 893.46-10.64 894.41-10.64L894.41-10.64 897.53-10.64Q898.8-10.64 899.15-10.35L899.15-10.35Q899.27-10.21 899.34-10.06L899.34-10.06 899.34-2.25Q899.34-1.73 899.15-1.46 898.95-1.2 898.41-1.17L898.41-1.17 874.24-1.17 873.51-1.81ZM926.15-33.59L934.5-33.59Q934.79-33.5 934.95-32.75 935.11-32.01 935.13-30.88 935.15-29.76 935.13-28.74 935.11-27.71 935.07-26.64 935.03-25.56 935.03-25.29L935.03-25.29Q934.98-24.32 934.98-22.56L934.98-22.56 934.98-19.97Q934.98-18.26 935.03-15.28 935.08-12.3 935.08-10.89L935.08-10.89 935.08-2Q934.98-1.17 933.71-1.17L933.71-1.17 920.04-1.17Q919.6-1.27 918.92-3.22L918.92-3.22Q918.46-4.52 917.37-7.47 916.28-10.42 915.5-12.66 914.72-14.89 914.09-16.99L914.09-16.99 914.09-17.14 914.09-16.99Q914.01-15.38 913.94-12.19 913.87-9.01 913.79-7.42L913.79-7.42 913.79-2.44Q913.79-1.71 913.62-1.43 913.45-1.15 912.72-0.98L912.72-0.98 902.66-0.98 901.59-2.05Q901.71-6.1 901.78-14.75 901.85-23.39 901.98-27.54L901.98-27.54 901.98-32.81Q902.22-33.69 902.56-33.69L902.56-33.69 902.56-33.59Q904.22-33.59 907.77-33.69 911.33-33.79 913.11-33.79L913.11-33.79 917.21-33.79Q917.23-33.79 917.28-33.76L917.28-33.76Q917.72-33.59 917.77-33.37L917.77-33.37 917.8-33.2Q918.67-30.83 919.58-28.3 920.48-25.76 921.73-22.16 922.97-18.55 923.46-17.19L923.46-17.19 923.46-20.8Q923.95-29.39 923.95-33.01L923.95-33.01Q923.95-33.4 924.49-33.5 925.02-33.59 926.15-33.59L926.15-33.59Z" opacity="1" transform="matrix(1,0,0,1,0,0)" fill="#ffffff" class="slogan-text-1" data-fill-palette-color="secondary" id="text-1"></path></svg></g></svg></g></svg></g></svg></g></svg></g><defs></defs></svg><rect width="395.52" height="118.85220200916152" fill="none" stroke="none" visibility="hidden"></rect></g></svg></g></svg>